<svg fill="none" height="24" viewBox="0 0 24 24" width="24" xmlns="http://www.w3.org/2000/svg"><path clip-rule="evenodd" d="m12 2c-4.825 0-8.75 3.925-8.75 8.75 0 4.53 3.67375 11.25 8.75 11.25 5.0762 0 8.75-6.72 8.75-11.25 0-4.825-3.9263-8.75-8.75-8.75zm6.2438 6.78625c-.0225-.16375-.1113-.31125-.2438-.41125-.1312-.1-.2975-.14-.4625-.11875-2.7537.39375-4.675 2.95375-4.2812 5.70625.045.3125.3125.5375.6175.5375.0287 0 .06-.0025.0887-.0063 1.3338-.19 2.515-.89 3.3225-1.9675.8088-1.0775 1.1488-2.405.9588-3.73995zm-12.48755 0c.04875-.34125.37-.57625.7075-.53 1.33375.19125 2.51375.88875 3.32125 1.96625.8087 1.0787 1.1487 2.4062.9587 3.74-.045.3125-.3125.5375-.6187.5375-.0288 0-.0588-.0025-.0875-.0063-1.33375-.1912-2.515-.89-3.3225-1.9675-.80875-1.0775-1.14875-2.4062-.95875-3.73995z" fill="#000" fill-rule="evenodd"/></svg>