<svg fill="none" height="24" viewBox="0 0 24 24" width="24" xmlns="http://www.w3.org/2000/svg"><g fill="#000"><path d="m8.20809 11.4809c.00157-.0097.00314-.0193.00461-.0289l-2.87039.6214-3.0436-3.38721.87164-.78325 2.58887 2.88116 2.89829-.6274c.1689-.30102.3768-.57586.61664-.81852l-2.05922-.50735-1.80411-3.32907 1.03039-.55832 1.55719 2.87352 2.2953.56548c-.43783-.35669-.71764-.89993-.71764-1.50864 0-.45492.15661-.87301.41829-1.2043-.37121-.32254-.60664-.7975-.60664-1.32672 0-.96926.78859-1.75782 1.75779-1.75782h.1126v1.17188h-.1126c-.3231 0-.5859.26285-.5859.58594 0 .32308.2628.58594.5859.58594h1.709c.3231 0 .5859-.26286.5859-.58594 0-.32309-.2628-.58594-.5859-.58594h-.1126v-1.17188h.1126c.9692 0 1.7578.78856 1.7578 1.75782 0 .52922-.2354 1.00418-.6067 1.32672.2617.33125.4183.74938.4183 1.2043 0 .60875-.2798 1.15195-.7176 1.50864l2.2953-.56548 1.5572-2.87352 1.0303.55832-1.8041 3.32907-2.0592.50735c.2398.24266.4477.5175.6166.81852l2.8983.6274 2.5889-2.88116.8716.78325-3.0436 3.38721-2.8704-.6214c.0015.0097.0031.0193.0047.029.0027.0166.0054.0333.0076.0501l.0522.3967c-.2527.3673-.7083.7037-1.3027.9575-.7359.3142-1.6173.4802-2.549.4802-.9318 0-1.8132-.166-2.54901-.4802-.59446-.2538-1.05008-.5902-1.3027-.9575l.05215-.3967c.0022-.0169.00493-.0336.00765-.0502z"/><path d="m21.5981 14.2648.4019 1.1009-3.1102 1.1354-2.6245-1.4278.1691 1.2862c.3522 2.6786-1.7327 5.0556-4.4344 5.0556s-4.78663-2.377-4.4344-5.0556l.1691-1.2862-2.62454 1.4278-3.11016-1.1354.40188-1.1009 2.61313.954 2.90864-1.5823.03382-.2573c.29692.2209.64301.4172 1.0334.5839.88008.3757 1.92063.5743 3.00913.5743s2.1291-.1986 3.0091-.5743c.3904-.1667.7365-.363 1.0334-.5839l.0339.2573 2.9086 1.5823z"/></g></svg>