<svg fill="none" height="24" viewBox="0 0 24 24" width="24" xmlns="http://www.w3.org/2000/svg"><path clip-rule="evenodd" d="m9.13358 17.8762c-.23441.2344-.5523.366-.88376.366s-.64935-.1316-.88376-.366l-5.00007-5c-.23434-.2344-.36599-.5523-.36599-.8838 0-.3314.13165-.6493.36599-.8837l5.00007-5.00011c.23575-.22771.55151-.3537.87926-.35085s.64127.13431.87303.36607c.23176.23177.36323.54529.36608.87304.00284.32775-.12315.6435-.35085.87926l-2.86629 2.86629h14.48271c.3315 0 .6495.1317.8839.3661s.3661.5524.3661.8839-.1317.6495-.3661.8839-.5524.3661-.8839.3661h-14.48271l2.86629 2.8663c.23434.2344.36599.5523.36599.8838 0 .3314-.13165.6493-.36599.8837z" fill="#000" fill-rule="evenodd"/></svg>