<svg fill="none" height="24" viewBox="0 0 24 24" width="24" xmlns="http://www.w3.org/2000/svg"><path clip-rule="evenodd" d="m13.7772 5.34589v-.67557c0-.21149-.15-.39383-.3574-.43457-.461-.09064-.9372-.13748-1.4242-.13748-.2993.00045-.5939.01861-.8834.05417-.1799.02182-.3573.0502-.5328.08483-.2074.04135-.3566.22324-.3566.43472v.67118c-2.71274.67416-4.82951 2.85648-5.4087 5.60513l-2.11415-2.42669c-.25787-.32974-.78414-.07797-.68847.3299l2.6448 9.21469v1.003c.00122.5179.55663.8478 1.01745.6105l6.01097-3.0922c.1996-.1024.4361-.0999.6334.006l5.994 3.224c.4553.245 1.0078-.0728 1.0284-.5895.0021-.0566.0034-.113.0034-.1701v-.9924l2.6446-9.21399c.0958-.40787-.4306-.65964-.6885-.3299l-2.1245 2.43869c-.5933-2.74171-2.6968-4.93491-5.3983-5.61441zm-2.9079 6.39531v2.1191c0 .237-.137.4525-.3517.5527l-1.98818.9277c-.22431.1047-.4895.0635-.67139-.1046l-1.71447-1.5827c-.19821-.1828-.25268-.4742-.13427-.7164l.71716-1.4637c.10223-.2095.31494-.3421.54778-.3421h2.98557c.3366 0 .6095.2732.6095.61zm6.9872 1.9122c.1982-.1828.2526-.4742.1342-.7164l-.7171-1.4637c-.1023-.2095-.315-.3421-.5478-.3421h-2.9854c-.3367 0-.6097.2732-.6097.61v2.1191c0 .237.137.4525.3517.5527l1.9882.9277c.2243.1047.4895.0635.6715-.1046z" fill="#000" fill-rule="evenodd"/></svg>