<svg fill="none" height="24" viewBox="0 0 24 24" width="24" xmlns="http://www.w3.org/2000/svg"><path d="m12.9374 2c-4.1362 0-7.49995 3.36375-7.49995 7.5v1.1025l-1.80875 3.6175c-.0975.1937-.08625.4238.0275.6075.11375.1838.315.2975.53125.2975h1.25v3.01c0 .3675.16.7137.44125.9513.28125.2374.64625.3412 1.01125.2799l2.2975-.38v2.3888c0 .1838.08.3587.22125.4762.11375.0963.25625.1488.40375.1488.03375 0 .06875-.0025.1025-.0088l7.49995-1.25c.3013-.05.5225-.31.5225-.6162v-3.8513c0-.87.4275-1.5674.7863-2.0012 1.105-1.335 1.7137-3.03 1.7137-4.7725 0-4.13625-3.3637-7.5-7.5-7.5z" fill="#000"/></svg>