<svg fill="none" height="24" viewBox="0 0 24 24" width="24" xmlns="http://www.w3.org/2000/svg"><path d="m22 22-6.6667-6.6667zm-4.4444-12.22222c0 1.02142-.2012 2.03282-.5921 2.97642s-.9638 1.8011-1.686 2.5233-1.5797 1.2951-2.5233 1.686-1.955.5921-2.97642.5921c-1.02139 0-2.03279-.2012-2.97643-.5921s-1.80106-.9638-2.52329-1.686c-.72224-.7222-1.29514-1.5797-1.68601-2.5233s-.59205-1.955-.59205-2.97642c0-2.0628.81944-4.04111 2.27806-5.49972 1.45861-1.45862 3.43692-2.27806 5.49972-2.27806 2.06282 0 4.04112.81944 5.49972 2.27806 1.4586 1.45861 2.2781 3.43692 2.2781 5.49972z" stroke="#000" stroke-linecap="round" stroke-linejoin="round" stroke-width="2"/></svg>