<svg fill="none" height="20" viewBox="0 0 20 20" width="20" xmlns="http://www.w3.org/2000/svg"><g fill="#000"><path d="m19.8185 18.9417-18.76009-18.75996c-.177307-.17746003-.443878-.2305606-.675659-.1344302-.231628.0959782-.38268996.3219602-.38268996.5728142v18.759876c0 .3424.27755696.62.61996396.62h18.760075c.2507 0 .4768-.1511.5727-.3827s.043-.4983-.1343-.6756zm-6.5502-.1816v-1.0344c0-.3424-.2775-.62-.6199-.62-.3423 0-.62.2776-.62.62v1.0344h-1.44v-.6589c0-.3423-.2775-.62-.61993-.62-.34241 0-.61996.2777-.61996.62v.6589h-1.44013v-1.0344c0-.3424-.27755-.62-.61996-.62s-.61997.2776-.61997.62v1.0344h-1.43997v-.6589c0-.3423-.27771-.62-.61996-.62-.34241 0-.62012.2777-.62012.62v.6589h-2.74826v-2.7484h.65872c.34241 0 .61997-.2776.61997-.62s-.27756-.62-.61997-.62h-.65872v-1.4401h1.03424c.34241 0 .62012-.2776.62012-.62s-.27771-.6199-.62012-.6199h-1.03424v-1.44h.65872c.34241 0 .61997-.2776.61997-.62 0-.34237-.27756-.61992-.61997-.61992h-.65872v-1.44013h1.03424c.34241 0 .62012-.27755.62012-.61996s-.27771-.61996-.62012-.61996h-1.03424v-4.61487l16.64306 16.64324z"/><path d="m4.58564 16.0117h5.62806c.2507 0 .4768-.1511.5727-.3827.0959-.2318.043-.4983-.1345-.6757l-5.62787-5.62802c-.17731-.17731-.44403-.23025-.67566-.13428-.23163.09598-.38269.32196-.38269.57267v5.62803c0 .3424.27755.62.61996.62zm.61997-4.7511 3.5112 3.5112h-3.5112z"/></g></svg>