<svg fill="none" height="20" viewBox="0 0 20 20" width="20" xmlns="http://www.w3.org/2000/svg"><g fill="#000"><path d="m17.2568.483404c-.7993.389809-1.8125 1.029946-2.9454 1.859126-3.2926-1.860923-7.64384-1.447444-10.53369 1.44245-2.89642 2.89638-3.300368 7.24632-1.44245 10.53362-.82825 1.1318-1.467094 2.1438-1.855496 2.9421-.364186.7486-.778172 1.8141-.170766 2.4215.517375.5174 1.349602.3092 2.022712.0321 1.09337-.4501 2.40829-1.3518 3.35426-2.051 3.25061 1.8296 7.60113 1.4692 10.52023-1.4499 2.8953-2.8953 3.2942-7.24264 1.4502-10.51953.1792-.24232.3509-.48042.5135-.71325.7318-1.04745 1.2511-1.93835 1.5437-2.64797.1439-.34911.5819-1.411473-.0308-2.02423-.6075-.607406-1.6755-.191038-2.426.174984zm-7.1111 1.905026c.5046.00988 1.001.06843 1.4838.17334l-1.95127 1.95131c-1.24411 1.24411-1.92928 2.89821-1.92928 4.65763 0 1.44639-.56327 2.80629-1.58603 3.82909l-1.95509 1.9551c-.85133-.9912-1.39664-2.1369-1.65333-3.3181l1.57029-1.5703c.9139-.91392 1.67039-1.96347 2.24839-3.1195.52159-1.04319 1.20422-1.99029 2.02888-2.81494zm-3.15426 11.43987c1.24411-1.2441 1.92928-2.8982 1.92928-4.65763 0-1.44644.56327-2.80627 1.58598-3.82907l2.3867-2.3867c.9236.3793 1.7665.94101 2.4842 1.65868.3174.31743.6032.65822.856 1.01838-1.3525 1.74891-3.0923 3.70361-4.9988 5.61014-1.90736 1.9073-3.86226 3.6471-5.61058 4.9985-.20236-.142-.39852-.2946-.58792-.4573zm-2.38517-9.21476c1.03068-1.03069 2.30686-1.72899 3.69826-2.04111l-.73107.73103c-.9139.91386-1.67036 1.96346-2.24839 3.11949-.5216 1.04318-1.20423 1.99025-2.02888 2.81494l-.91507.91511c-.00102-.0512-.00188-.1025-.00188-.15378.00004-2.03688.79094-3.94956 2.22703-5.38568zm.03382 12.36246c-2.33006 1.6763-3.22322 1.8455-3.47058 1.8516.01289-.3326.36188-1.3672 1.85819-3.4669.22986.2976.47988.5826.75005.8528.27411.2741.5635.5273.86582.7599zm10.73751-1.5911c-1.4361 1.4361-3.3487 2.227-5.38565 2.227-.05136 0-.10257-.0008-.15374-.0018l1.29879-1.2988c.542-.5421 1.2129-.9567 1.9402-1.1991.8989-.2997 1.7282-.8122 2.3982-1.4822l1.9434-1.9434c-.3122 1.3914-1.0105 2.6676-2.0412 3.6983zm2.2252-5.53941-2.9559 2.95591c-.5421.5421-1.213.9567-1.9402 1.1991-.8989.2997-1.7282.8122-2.3982 1.4822l-1.95402 1.954c-.56874-.1236-1.11857-.3114-1.64063-.5601 1.68617-1.3325 3.53105-2.9875 5.34955-4.806 1.8178-1.8178 3.4728-3.66244 4.8062-5.34909.4596.96511.7117 2.02501.7332 3.12398zm-.6307-5.20149c-.0018.00247-.0036.005-.0054.0075-.2328-.30255-.4862-.59221-.7605-.86652-.2702-.27017-.5552-.52019-.8528-.75005 2.103-1.49904 3.14-1.85093 3.4744-1.86522-.0067.24908-.1787 1.14411-1.8557 3.47429z"/><path d="m12.4777 8.34207c.4579-.45789.458-1.19915 0-1.65712-.4579-.45792-1.1992-.458-1.6571 0-.458.45789-.4581 1.19915 0 1.65712.4578.45797 1.1991.45801 1.6571 0z"/></g></svg>