<svg fill="none" height="20" viewBox="0 0 16 20" width="16" xmlns="http://www.w3.org/2000/svg"><path d="m12.6746 7.41016.93-1.77008c.623-1.18586.5797-2.63477-.1131-3.78129-.6928-1.146524-1.9552-1.85879-3.2948-1.85879h-4.39337c-1.33957 0-2.60211.712266-3.29488 1.85875-.69274 1.14652-.73606 2.59543-.11305 3.78129l.93 1.77012c-1.97176 1.44394-3.2548434 3.77514-3.2548434 6.40074 0 1.9371.7063674 3.8024 1.9890634 5.252.52699.5955 1.28566.9371 2.08133.9371h7.71805c.7958 0 1.5544-.3416 2.0814-.9371 1.2826-1.4497 1.989-3.3148 1.989-5.252 0-2.6256-1.2831-4.95684-3.2548-6.40074zm-9.05014-4.87707c.45813-.75825 1.29305-1.22922 2.17887-1.22922h4.39337c.8858 0 1.7207.47097 2.1789 1.22922.4581.75824.4867 1.7164.0747 2.50062l-.8885 1.69121c-.4183-.21097-.8526-.38336-1.3005-.51625l.807-1.5359c.2184-.41578.2032-.92382-.0397-1.32578-.2429-.40203-.6855-.65176-1.15531-.65176h-3.74676c-.46968 0-.91238.24973-1.15531.65176-.24285.40203-.25809.91-.03965 1.32586l.80696 1.53586c-.44782.13289-.88219.30531-1.30043.51625l-.88856-1.69121c-.41184-.78434-.3832-1.7425.07492-2.50066zm6.28965 1.53328-.98258 1.87015c-.30562-.03593-.61633-.05496-.9314-.05496-.31516 0-.62586.01907-.93149.05496l-.98265-1.87011c-.00743-.01418-.00696-.03153.00136-.0452.00825-.01367.02332-.02215.03934-.02215h3.74676c.01597 0 .03101.00848.03933.02215.00825.01367.00875.03102.00133.04516zm3.04979 14.13243c-.2797.3161-.6824.4974-1.1049.4974h-7.71801c-.4225 0-.8252-.1813-1.10485-.4974-1.07156-1.211-1.66168-2.7693-1.66168-4.3879 0-3.6533 2.97223-6.62551 6.62555-6.62551 3.65329 0 6.62559 2.97221 6.62559 6.62551 0 1.6186-.5902 3.1769-1.6617 4.3879z" fill="#000"/></svg>