<svg fill="none" height="20" viewBox="0 0 12 20" width="12" xmlns="http://www.w3.org/2000/svg"><path d="m10.5653 16.0869h-1.95655v-9.78285c0-.3602-.29199-.65219-.65219-.65219h-1.30438v-.54695c1.15219-.40868 1.65286-1.76302 1.04352-2.82001-.00008-.00008-.00012-.00016-.00016-.00028l-1.13071-1.958911c-.25093-.43465-.8793-.433908-1.12969 0l-1.13063 1.958951c-.61086 1.05856-.10679 2.41232 1.04329 2.82021v.54695h-1.30438c-.3602 0-.65219.292-.65219.65219 0 1.07887-.8777 1.95657-1.95657 1.95657-.3602 0-.652189.292-.652189.65219v2.60873c0 .3602.291989.6522.652189.6522h1.95657v3.9132h-1.95657c-.3602 0-.652189.292-.652189.6522v2.6087c0 .3602.291989.6522.652189.6522h9.13064c.3602 0 .6522-.292.6522-.6522v-2.6087c0-.3602-.292-.6522-.6522-.6522zm-5.13109-13.15028.56578-.98024.56563.97996c.24871.43149-.06438.97634-.56567.97634-.50172 0-.81414-.54551-.56574-.97606zm4.47892 15.75908h-7.82628v-1.3044h1.95657c.3602 0 .65219-.292.65219-.6522v-5.2175c0-.3602-.29199-.6522-.65219-.6522h-1.95657v-1.36991c1.27579-.26004 2.28325-1.26746 2.54325-2.54325h2.67427v9.78286c0 .3602.29199.6522.65219.6522h1.95657z" fill="#000"/></svg>