<svg fill="none" height="24" viewBox="0 0 24 24" width="24" xmlns="http://www.w3.org/2000/svg"><path d="m12.2735 2h-.6013c-4.06369 0-7.32851 3.01666-7.32851 6.72565v3.83095c0 1.2555.78129 2.3813 2.03121 2.7601v2.4188c0 2.3914 4.337 4.2645 5.1416 4.2645h.9127c.8045 0 5.1959-1.8731 5.1959-4.2645v-2.4188c1.2499-.3787 2.0312-1.5048 2.0312-2.7601v-3.83095c.0001-3.70899-3.3191-6.72565-7.3828-6.72565zm-.3006 10.7793c.6929 0 1.0736 1.7669 1.0736 2.3525 0 .5611-.3221.6366-.6373.6366-.0619 0-.1286-.0025-.199-.0054-.1498-.0061-.325-.0061-.4741 0-.0706.003-.1372.0054-.1994.0054-.1499 0-.3206-.0141-.4493-.1189-.1283-.1043-.188-.2689-.188-.5177 0-.5856.3807-2.3525 1.0735-2.3525zm-4.38855-2.0245c.27361-.3299.66401-.5285 1.09969-.5579l.68977-.0471c.92159-.0609 1.64159.4128 1.64159 1.0535 0 .6131-.6163 1.4069-1.40287 1.807l-.5984.3042c-.21105.1075-.42321.1619-.62977.1619-.58336 0-1.01057-.424-1.08945-1.0802l-.05472-.4571c-.05168-.4334.0704-.8539.34416-1.1843zm9.02855 5.0341-1.4878.505v.8643c0 .0218-.0178.0443-.0223.065-.0349.752-.7093 1.1832-1.8352 1.1832h-2.6378c-.88031 0-1.75472-.4303-1.75472-1.2482v-.8643l-1.51169-.505c-.16352-.055-.25584-.232-.2008-.3957.05472-.1635.23024-.252.39344-.1966l1.72386.5765c.12736.0429.22016.1621.22016.2965v1.0889c0 .1867.11248.3243.28432.4226.0216-.1515.16688-.2685.32433-.2685.1725 0 .3288.14.3288.3125v.1398c0 .0095.12.0167.1922.0167h.4328v-.1567c0-.1725.14-.3125.3124-.3125.1725 0 .3125.14.3125.3125v.1567h.625v-.1567c0-.1725.14-.3125.3125-.3125s.3125.14.3125.3125v.1567h.33c.0813 0 .1386-.0052.2949-.0128v-.1437c0-.1725.1261-.3125.2986-.3125.1694 0 .2995.1349.3046.3032.1786-.0931.3171-.2363.3171-.4571 0-.0192.017-.0379.017-.0563v-1.0327c0-.1344.0701-.2536.1975-.2965l1.7086-.5765c.1638-.0553.3448.0332.3995.1967.0557.1633-.0286.3405-.1923.3955zm.2843-3.8499-.0547.4569c-.0786.6563-.5061 1.0804-1.0893 1.0804-.2067 0-.4185-.0544-.6299-.162l-.5983-.3041c-.7867-.4002-1.4028-1.1938-1.4028-1.8071 0-.6406.722-1.1139 1.6414-1.0534l.6899.047c.4356.0296.826.228 1.0997.5581.2739.3304.396.7509.344 1.1842z" fill="#000"/></svg>